<svg width="193" height="106" viewBox="0 0 193 106" fill="none" xmlns="http://www.w3.org/2000/svg">
<path d="M40.7629 78.4228C33.2758 78.4228 27.4525 84.4552 27.4525 92.2113C27.4525 99.9674 33.2758 106 40.7629 106C48.25 106 54.0733 99.9674 54.0733 92.2113C54.0733 84.4552 48.25 78.4228 40.7629 78.4228ZM119.793 0H113.138V16.8048H138.095L119.793 0ZM0.831821 94.7967H17.4698C17.4698 94.7967 18.3017 68.9431 42.4267 68.9431C60.3125 68.9431 63.2241 94.7967 63.2241 94.7967H104.819V0H0L0.831821 94.7967ZM158.06 78.4228C150.573 78.4228 144.75 84.4552 144.75 92.2113C144.75 99.9674 150.573 106 158.06 106C165.548 106 171.371 99.9674 171.371 92.2113C171.371 84.4552 165.132 78.4228 158.06 78.4228ZM142.254 21.5447H113.138V94.7967H138.095C138.095 94.7967 134.767 73.252 158.892 73.252C177.194 73.252 176.778 94.7967 176.778 94.7967H192.168L193 62.4797L142.254 21.5447ZM138.095 77.561H121.457V68.9431H138.095V77.561ZM136.431 62.0487L119.793 51.7073V27.5772H136.431L179.69 62.0487H136.431Z" fill="white" fill-opacity="0.4"/>
</svg>
